{"title":"Jack Ryan:Shadow Recruit(2014)MPEG-4[DaScubaDude]","uid":13841176,"size":1246357494,"categoryP":"video","categoryS":"movies","magnet":"?xt=urn:btih:4ad2f836ecc41742d4b28bf5251202493d9854b6&amp;dn=Jack+Ryan%3AShadow+Recruit%282014%29MPEG-4%5BDaScubaDude%5D&amp;tr=udp%3A%2F%2Ftracker.leechers-paradise.org%3A6969&amp;tr=udp%3A%2F%2Fzer0day.ch%3A1337&amp;tr=udp%3A%2F%2Fopen.demonii.com%3A1337&amp;tr=udp%3A%2F%2Ftracker.coppersurfer.tk%3A6969&amp;tr=udp%3A%2F%2Fexodus.desync.com%3A6969","seeders":0,"leechers":1,"uploader":"dascuba","files":1,"time":1457798791,"description":"Jack Ryan: Shadow Recruit (2014)\r\nPG-13 | 1h 45min | Action, Drama, Thriller | 17 January 2014 (USA)\r\nJack Ryan, as a young covert CIA analyst, uncovers a Russian plot to crash the U.S. economy with a terrorist attack.\r\nDirector: Kenneth Branagh\r\nWriters: Adam Cozad, David Koepp | 1 more credit »\r\nStars: Chris Pine, Kevin Costner, Keira Knightley \r\n\r\nGeneral\r\nComplete name                            : Shadow RecruitJackRYAN.mp4\r\nFormat                                   : MPEG-4\r\nFormat profile                           : Base Media / Version 2\r\nCodec ID                                 : mp42\r\nFile size                                : 1.16 GiB\r\nDuration                                 : 1h 45mn\r\nOverall bit rate mode                    : Variable\r\nOverall bit rate                         : 1 574 Kbps\r\nEncoded date                             : UTC 2036-02-06 06:28:16\r\nTagged date                              : UTC 2036-02-06 06:28:16\r\nWriting application                      : HandBrake 0.10.2 2015060900\r\n\r\nVideo\r\nID                                       : 1\r\nFormat                                   : AVC\r\nFormat/Info                              : Advanced Video Codec\r\nFormat profile                           :   \r\nFormat settings, CABAC                   : Yes\r\nFormat settings, ReFrames                : 4 frames\r\nCodec ID                                 : avc1\r\nCodec ID/Info                            : Advanced Video Coding\r\nDuration                                 : 1h 45mn\r\nBit rate                                 : 1 364 Kbps\r\nWidth                                    : 720 pixels\r\nHeight                                   : 360 pixels\r\nDisplay aspect ratio                     : 2.40:1\r\nFrame rate mode                          : Variable\r\nFrame rate                               : 18.595 fps\r\nMinimum frame rate                       : 1.620 fps\r\nMaximum frame rate                       : 90 000.000 fps\r\nColor space                              : YUV\r\nChroma subsampling                       : 4:2:0\r\nBit depth                                : 8 bits\r\nScan type                                : Progressive\r\nBits/(Pixel*Frame)                       : 0.283\r\nStream size                              : 1.01 GiB (87%)\r\nWriting library                          : x264 core 142 r2479 dd79a61\r\nEncoding settings                        : cabac=1 / ref=1 / deblock=1:0:0 / analyse=0x1:0x111 / me=hex / subme=2 / psy=1 / psy_rd=1.00:0.00 / mixed_ref=0 / me_range=16 / chroma_me=1 / trellis=0 / 8x8dct=0 / cqm=0 / deadzone=21,11 / fast_pskip=1 / chroma_qp_offset=0 / threads=3 / lookahead_threads=1 / sliced_threads=0 / nr=0 / decimate=1 / interlaced=0 / bluray_compat=0 / constrained_intra=0 / bframes=3 / b_pyramid=2 / b_adapt=1 / b_bias=0 / direct=1 / weightb=1 / open_gop=0 / weightp=1 / keyint=240 / keyint_min=24 / scenecut=40 / intra_refresh=0 / rc_lookahead=10 / rc=crf / mbtree=1 / crf=20.0 / qcomp=0.60 / qpmin=0 / qpmax=69 / qpstep=4 / vbv_maxrate=20000 / vbv_bufsize=25000 / crf_max=0.0 / nal_hrd=none / filler=0 / ip_ratio=1.40 / aq=1:1.00\r\nEncoded date                             : UTC 2036-02-06 06:28:16\r\nTagged date                              : UTC 2036-02-06 06:28:16\r\nColor range                              : Limited\r\nColor primaries                          : BT.601 NTSC\r\nTransfer characteristics                 : BT.709\r\nMatrix coefficients                      : BT.601\r\n\r\nAudio\r\nID                                       : 2\r\nFormat                                   : AAC\r\nFormat/Info                              : Advanced Audio Codec\r\nFormat profile                           : LC\r\nCodec ID                                 : 40\r\nDuration                                 : 1h 45mn\r\nBit rate mode                            : Variable\r\nBit rate                                 : 204 Kbps\r\nChannel(s)                               : 2 channels\r\nChannel positions                        : Front: L R\r\nSampling rate                            : 48.0 KHz\r\nCompression mode                         : Lossy\r\nStream size                              : 154 MiB (13%)\r\nTitle                                    : Stereo / Stereo\r\nLanguage                                 : English\r\nEncoded date                             : UTC 2036-02-06 06:28:16\r\nTagged date                              : UTC 2036-02-06 06:28:16\r\n\r\nMenu\r\nID                                       : 3\r\nCodec ID                                 : text\r\nDuration                                 : 1h 45mn\r\nLanguage                                 : English\r\nEncoded date                             : UTC 2036-02-06 06:28:16\r\nTagged date                              : UTC 2036-02-06 06:28:16\r\n00:00:00.000                             : Chapter 1\r\n00:05:45.779                             : Chapter 2\r\n00:12:02.622                             : Chapter 3\r\n00:18:11.324                             : Chapter 4\r\n00:23:38.851                             : Chapter 5\r\n00:31:20.112                             : Chapter 6\r\n00:40:26.357                             : Chapter 7\r\n00:48:47.525                             : Chapter 8\r\n00:57:28.366                             : Chapter 9\r\n01:06:19.680                             : Chapter 10\r\n01:13:07.755                             : Chapter 11\r\n01:21:54.114                             : Chapter 12\r\n01:27:07.126                             : Chapter 13\r\n01:35:21.754                             : Chapter 14\r\n01:38:55.301                             : Chapter 15\r\nBit rate mode                            : VBR","torrent":{"xt":"urn:btih:4ad2f836ecc41742d4b28bf5251202493d9854b6","amp;dn":"Jack+Ryan%3AShadow+Recruit%282014%29MPEG-4%5BDaScubaDude%5D","amp;tr":["udp%3A%2F%2Ftracker.leechers-paradise.org%3A6969","udp%3A%2F%2Fzer0day.ch%3A1337","udp%3A%2F%2Fopen.demonii.com%3A1337","udp%3A%2F%2Ftracker.coppersurfer.tk%3A6969","udp%3A%2F%2Fexodus.desync.com%3A6969"],"infoHash":"4ad2f836ecc41742d4b28bf5251202493d9854b6","infoHashBuffer":{"type":"Buffer","data":[74,210,248,54,236,196,23,66,212,178,139,245,37,18,2,73,61,152,84,182]},"announce":[],"urlList":[]}}